<svg width="56" height="56" viewBox="0 0 56 56" fill="none" xmlns="http://www.w3.org/2000/svg">
<rect x="0.5" y="0.5" width="55" height="55" fill="white"/>
<rect x="0.5" y="0.5" width="55" height="55" stroke="#D9D9D9"/>
<path d="M35.1429 24H25.8571C24.8315 24 24 24.8315 24 25.8571V35.1429C24 36.1685 24.8315 37 25.8571 37H35.1429C36.1685 37 37 36.1685 37 35.1429V25.8571C37 24.8315 36.1685 24 35.1429 24Z" stroke="#818181" stroke-width="2" stroke-linecap="round" stroke-linejoin="round"/>
<path d="M20.8571 32C19.8357 32 19 31.1643 19 30.1429V20.8571C19 19.8357 19.8357 19 20.8571 19H30.1429C31.1643 19 32 19.8357 32 20.8571" stroke="#818181" stroke-width="2" stroke-linecap="round" stroke-linejoin="round"/>
</svg>
