<svg width="18" height="18" viewBox="0 0 18 18" fill="none" xmlns="http://www.w3.org/2000/svg">
<path d="M16.4995 12.7304V14.9885C16.5004 15.1981 16.4574 15.4056 16.3732 15.5977C16.2891 15.7898 16.1657 15.9622 16.0109 16.1039C15.8561 16.2456 15.6734 16.3535 15.4744 16.4207C15.2754 16.4878 15.0646 16.5128 14.8554 16.4939C12.5346 16.2422 10.3053 15.4508 8.34668 14.1831C6.52441 13.0274 4.97945 11.4855 3.8215 9.66689C2.5469 7.70324 1.75368 5.46756 1.50612 3.14096C1.48727 2.93282 1.51206 2.72303 1.5789 2.52497C1.64574 2.32691 1.75317 2.1449 1.89436 1.99055C2.03554 1.83619 2.20738 1.71287 2.39893 1.62843C2.59049 1.54398 2.79756 1.50027 3.00697 1.50007H5.26956C5.63558 1.49648 5.99041 1.62583 6.26793 1.86403C6.54546 2.10222 6.72672 2.43301 6.77795 2.79472C6.87345 3.51736 7.05055 4.22691 7.30589 4.90981C7.40736 5.17922 7.42932 5.47202 7.36917 5.7535C7.30902 6.03498 7.16928 6.29336 6.9665 6.49801L6.00867 7.45394C7.08231 9.33837 8.64568 10.8986 10.5338 11.9702L11.4917 11.0142C11.6967 10.8118 11.9556 10.6724 12.2377 10.6123C12.5197 10.5523 12.8131 10.5742 13.083 10.6755C13.7673 10.9303 14.4782 11.1071 15.2023 11.2024C15.5687 11.254 15.9033 11.4381 16.1424 11.7199C16.3816 12.0016 16.5087 12.3612 16.4995 12.7304Z" stroke="#818181" stroke-width="1.5" stroke-linecap="round" stroke-linejoin="round"/>
</svg>
