<svg width="24" height="24" viewBox="0 0 24 24" fill="none" xmlns="http://www.w3.org/2000/svg">
<path d="M6.66667 3L4 6.6V19.2C4 19.6774 4.1873 20.1352 4.5207 20.4728C4.8541 20.8104 5.30628 21 5.77778 21H18.2222C18.6937 21 19.1459 20.8104 19.4793 20.4728C19.8127 20.1352 20 19.6774 20 19.2V6.6L17.3333 3H6.66667Z" stroke="#282828" stroke-width="2" stroke-linecap="round" stroke-linejoin="round"/>
<path d="M4 7H20" stroke="#282828" stroke-width="2" stroke-linecap="round" stroke-linejoin="round"/>
<path d="M15 11C15 11.5304 14.6839 12.0391 14.1213 12.4142C13.5587 12.7893 12.7956 13 12 13C11.2044 13 10.4413 12.7893 9.87868 12.4142C9.31607 12.0391 9 11.5304 9 11" stroke="#282828" stroke-width="2" stroke-linecap="round" stroke-linejoin="round"/>
</svg>
